<?xml version="1.0" encoding="iso-8859-1"?>
<!-- Generator: Adobe Illustrator 22.0.0, SVG Export Plug-In . SVG Version: 6.00 Build 0)  -->
<svg version="1.1" id="Layer_1" xmlns="http://www.w3.org/2000/svg" xmlns:xlink="http://www.w3.org/1999/xlink" x="0px" y="0px"
	 viewBox="0 0 1920 1080" style="enable-background:new 0 0 1920 1080;" xml:space="preserve">
<path style="fill:#FFFFFF;" d="M31.333,27.333l78.667,36l106.333,25l104.667-16l89,74.333L529.333,87l108.333-4.667L714,241.667
	l98,42.667L935.667,211l91.667,57.333l80,118.667l113.333-16.333l83,68.667l65.333,21c0,0,140.667-6.333,141.667-6.333
	S1601,518.667,1601,518.667L1668,372l77.667,123L1840,427.667l62.667,81l1,414.333l-84-68.333l-160,106.333h-199L1375,931.667
	l-83,94l-101.333-61.333L1118,860.667L947.333,906l-87,84.667L717.667,923l-147.333,48.333l-183-76.667l-178,4.667L112,847.667
	L31.333,955V27.333z"/>
</svg>
