<?xml version="1.0" encoding="iso-8859-1"?>
<!-- Generator: Adobe Illustrator 22.0.0, SVG Export Plug-In . SVG Version: 6.00 Build 0)  -->
<svg version="1.1" id="Layer_1" xmlns="http://www.w3.org/2000/svg" xmlns:xlink="http://www.w3.org/1999/xlink" x="0px" y="0px"
	 viewBox="0 0 1920 1080" style="enable-background:new 0 0 1920 1080;" xml:space="preserve">
<path style="fill:#FFFFFF;" d="M0,466.625l21.125,13.25l47-0.875l122.75-71.5l35.5,7.375l40.25-17.25l43,1.375l34.75,34.125
	c0,0,41.75,21.25,42.25,21.25s43.625,1.75,43.625,1.75l39.75,35.5h49.75l37-32.5l50.75-22c0,0,35.375-64.75,35.75-64.75
	S713,414.75,713,414.75l48.125,13.875l45-32.625l34.625-2.625l45.125-35.75c0,0,73.25-16,74.125-15.875s72.5,15.25,72.5,15.25
	s38.25,33.375,39.25,33.875s39.125,5.375,39.125,5.375s40.5,31.5,40.875,31.75s51.125-9.875,51.125-9.875L1322.5,348.5l43.625,39.75
	l35-31.25l47.375-0.875l37.625-24.5l31.25,31.5l50.5,22.75L1609,375.5c0,0,79.625,40.25,80.5,40.75s39.375-7.875,39.375-7.875
	l124.25,70.875l44.25,2.25L1920,466.75V0H0V466.625z"/>
</svg>
