<?xml version="1.0" encoding="iso-8859-1"?>
<!-- Generator: Adobe Illustrator 22.0.0, SVG Export Plug-In . SVG Version: 6.00 Build 0)  -->
<svg version="1.1" id="Layer_1" xmlns="http://www.w3.org/2000/svg" xmlns:xlink="http://www.w3.org/1999/xlink" x="0px" y="0px"
	 viewBox="0 0 1920 1256" style="enable-background:new 0 0 1920 1256;" xml:space="preserve">
<path style="fill:#FFFFFF;" d="M1920,1225c0,0-196,23-396-155c-32.345-28.715-64.384-57.757-96.283-86.965
	c-30.949-28.338-56.467-62.543-86.876-91.665c-38.405-36.78-80.291-70.464-126.257-97.361
	c-31.929-18.684-66.046-34.168-102.013-43.191c-37.772-9.475-77.371-10.041-115.825-4.363
	c-42.152,6.224-82.344,17.564-121.018,35.934C819.514,809.091,769.537,847.778,728,894c-13.187,14.674-26.647,28.69-41.705,41.529
	c-34.155,29.121-73.154,53.033-115.472,68.24c-55.332,19.883-116.887,24.102-173.75,8.368c-34.691-9.6-67.9-24.531-98.112-44.098
	c-17.119-11.087-31.891-24.574-47.934-37.078c-37.74-29.417-77.455-56.791-119.653-79.438C92.337,830.571,45.553,808.62,0,813
	c0,0,0-503.988,0-504c0-2.171,1.438-5.015,2.056-7.057c1.957-6.469,4.053-12.895,6.243-19.289
	c3.277-9.567,6.777-19.058,10.483-28.467c4.596-11.668,9.513-23.21,14.776-34.593c5.91-12.783,12.257-25.367,19.12-37.666
	c7.218-12.934,15.009-25.558,23.518-37.685c8.53-12.158,17.788-23.83,27.967-34.652c9.888-10.513,20.666-20.24,32.469-28.566
	c11.421-8.057,23.823-14.781,37.024-19.427c12.312-4.334,25.247-6.371,37.997-8.955c7.912-1.604,15.613-3.225,23.646-4.088
	c14.959-1.608,30.087-1.635,45.062-0.221c19.769,1.867,39.274,6.282,57.968,12.965c23.384,8.359,45.418,20.243,65.614,34.661
	c0.019,0.014,0.039,0.028,0.058,0.041c1.556,1.284,3.125,2.553,4.695,3.82c4.332,3.497,8.692,6.961,13.07,10.402
	c6.602,5.189,13.247,10.322,19.931,15.404c8.363,6.359,16.789,12.638,25.278,18.828c9.617,7.012,19.316,13.912,29.112,20.673
	c10.361,7.152,20.829,14.15,31.432,20.94c10.596,6.785,21.326,13.364,32.239,19.627c10.321,5.923,20.807,11.574,31.532,16.735
	c9.544,4.593,19.288,8.826,29.311,12.265c11.212,3.847,22.677,5.415,34.119,8.323c10.92,2.775,21.756,5.726,32.756,8.238
	c12.135,2.772,24.318,5.329,36.54,7.689c15.051,2.907,30.161,5.513,45.317,7.812c17.339,2.631,34.74,4.86,52.186,6.649
	c19.003,1.949,38.061,3.376,57.146,4.199c20.052,0.865,40.137,1.065,60.199,0.463c0.713-0.021,1.426-0.044,2.139-0.067
	c0,0,230,0,380,90c16.44,10.686,32.266,22.453,47.597,34.66c11.04,8.79,21.81,17.94,32.051,27.654
	c11.86,11.25,22.911,22.617,36.334,32.064c7.737,5.445,15.694,10.579,23.827,15.413c22.154,13.168,45.654,24.155,70.103,32.336
	c29.963,10.026,61.427,15.75,93.063,15.763c29.607,0.012,59.1-5.055,87.024-14.89c159-56,209-248,209-248V1225z"/>
</svg>
